<?xml version="1.0" encoding="UTF-8" standalone="no"?>
<svg
   data-v-0dd9719b=""
   version="1.0"
   width="115600"
   height="62500"
   viewBox="0 0 115600 62500"
   preserveAspectRatio="xMidYMid"
   color-interpolation-filters="sRGB"
   id="svg43"
   sodipodi:docname="logo.svg"
   xmlns:inkscape="http://www.inkscape.org/namespaces/inkscape"
   xmlns:sodipodi="http://sodipodi.sourceforge.net/DTD/sodipodi-0.dtd"
   xmlns="http://www.w3.org/2000/svg"
   xmlns:svg="http://www.w3.org/2000/svg">
  <sodipodi:namedview
     id="namedview45"
     pagecolor="#ffffff"
     bordercolor="#666666"
     borderopacity="1.0"
     inkscape:showpageshadow="2"
     inkscape:pageopacity="0.0"
     inkscape:pagecheckerboard="0"
     inkscape:deskcolor="#d1d1d1"
     showgrid="false" />
  <g
     data-v-0dd9719b=""
     fill="#1a48cf"
     class="pmspacesvg"
     transform="translate(57.526007,25.885514)"
     id="g24">
    <!---->
    <polyline
       data-gra="graph-name"
       stroke="#1a48cf"
       stroke-width="20"
       fill-opacity="0"
       stroke-opacity="0.5"
       points="10,66.52999877929688 234.0699920654297,66.52999877929688 234.0699920654297,10"
       id="polyline6" />
    <!---->
    <g
       mask="url(#4978ed83-b7ce-4a0a-b166-4a1870553ef6)"
       id="g22">
      <g
         id="g10">
        <rect
           data-gra="graph-name-bg"
           stroke-width="2"
           class="i-icon-bg"
           x="0"
           y="0"
           width="234.06999"
           height="66.529999"
           id="rect8" />
        <!---->
        <!---->
      </g>
      <g
         transform="translate(10,10)"
         id="g20">
        <g
           data-gra="path-name"
           fill-rule=""
           class="tp-name"
           fill="#faf7f5"
           opacity="1"
           id="g18">
          <g
             id="g16">
            <g
               id="g14">
              <path
                 d="M 19.86,0 H 11 V -28.6 H 0.6 v -6.82 h 29.65 v 6.82 H 19.86 Z m 22.98,-30.2 h -9.62 v -6.65 h 9.62 z M 42.79,0 h -8.85 v -19.52 h -3.85 l 0.77,-6.55 h 11.93 z m 14.52,0 h -8.85 v -26.07 h 8.25 l 0.27,2.25 q 1.6,-1.09 4.02,-1.95 2.42,-0.85 5.17,-0.85 v 0 q 5.06,0 7.37,2.42 2.3,2.42 2.3,7.48 v 0 V 0 h -8.85 v -16 q 0,-2.21 -0.93,-3.14 -0.94,-0.93 -3.36,-0.93 v 0 q -1.43,0 -2.91,0.66 -1.49,0.66 -2.48,1.64 v 0 z m 30.25,9.68 v 0 q -1.98,0 -3.38,-0.19 -1.4,-0.2 -2.78,-0.75 v 0 -6.16 q 0.93,0.34 1.73,0.44 0.8,0.12 1.62,0.12 v 0 q 2.26,0 3.39,-0.8 1.13,-0.8 2.28,-2.83 v 0 L 78.7,-26.07 H 88 l 6.88,16.55 6.76,-16.55 h 9.24 l -9.96,23.92 Q 99.44,1.43 97.63,4.1 95.81,6.76 93.39,8.22 90.97,9.68 87.56,9.68 Z M 123.14,0 h -8.85 v -35.42 h 17.43 q 4.24,0 6.99,1.68 2.75,1.68 4.1,4.53 1.35,2.87 1.35,6.44 v 0 q 0,3.63 -1.54,6.43 -1.55,2.81 -4.38,4.38 -2.83,1.57 -6.74,1.57 v 0 h -8.36 z m 0,-28.6 v 11.39 h 6.39 q 2.8,0 4.2,-1.54 1.4,-1.55 1.4,-4.07 v 0 q 0,-2.75 -1.29,-4.27 -1.29,-1.51 -4.04,-1.51 v 0 z M 156.47,0 h -8.85 v -35.42 h 8.85 v 14.03 h 13.87 v -14.03 h 8.85 V 0 h -8.85 v -14.03 h -13.87 z m 37.19,0 h -8.86 v -35.42 h 17.44 q 4.23,0 6.98,1.68 2.75,1.68 4.1,4.53 1.35,2.87 1.35,6.44 v 0 q 0,3.63 -1.54,6.43 -1.54,2.81 -4.38,4.38 -2.83,1.57 -6.73,1.57 v 0 h -8.36 z m 0,-28.6 v 11.39 h 6.37 q 2.81,0 4.21,-1.54 1.41,-1.55 1.41,-4.07 v 0 q 0,-2.75 -1.3,-4.27 -1.29,-1.51 -4.04,-1.51 v 0 z"
                 transform="translate(-0.60000002,36.849998)"
                 id="path12" />
            </g>
            <!---->
            <!---->
            <!---->
            <!---->
            <!---->
            <!---->
            <!---->
          </g>
        </g>
        <!---->
      </g>
    </g>
  </g>
  <defs
     v-gra="od"
     id="defs26" />
  <mask
     id="4978ed83-b7ce-4a0a-b166-4a1870553ef6">
    <g
       fill="#ffffff"
       id="g30">
      <rect
         data-gra="graph-name-bg"
         stroke-width="2"
         class="i-icon-bg"
         x="0"
         y="0"
         width="234.06999"
         height="66.529999"
         id="rect28" />
    </g>
    <g
       transform="translate(10,10)"
       fill="#000000"
       id="g40">
      <g
         data-gra="path-name"
         fill-rule=""
         class="tp-name"
         opacity="1"
         id="g38">
        <g
           id="g36">
          <g
             id="g34">
            <path
               d="M 19.86,0 H 11 V -28.6 H 0.6 v -6.82 h 29.65 v 6.82 H 19.86 Z m 22.98,-30.2 h -9.62 v -6.65 h 9.62 z M 42.79,0 h -8.85 v -19.52 h -3.85 l 0.77,-6.55 h 11.93 z m 14.52,0 h -8.85 v -26.07 h 8.25 l 0.27,2.25 q 1.6,-1.09 4.02,-1.95 2.42,-0.85 5.17,-0.85 v 0 q 5.06,0 7.37,2.42 2.3,2.42 2.3,7.48 v 0 V 0 h -8.85 v -16 q 0,-2.21 -0.93,-3.14 -0.94,-0.93 -3.36,-0.93 v 0 q -1.43,0 -2.91,0.66 -1.49,0.66 -2.48,1.64 v 0 z m 30.25,9.68 v 0 q -1.98,0 -3.38,-0.19 -1.4,-0.2 -2.78,-0.75 v 0 -6.16 q 0.93,0.34 1.73,0.44 0.8,0.12 1.62,0.12 v 0 q 2.26,0 3.39,-0.8 1.13,-0.8 2.28,-2.83 v 0 L 78.7,-26.07 H 88 l 6.88,16.55 6.76,-16.55 h 9.24 l -9.96,23.92 Q 99.44,1.43 97.63,4.1 95.81,6.76 93.39,8.22 90.97,9.68 87.56,9.68 Z M 123.14,0 h -8.85 v -35.42 h 17.43 q 4.24,0 6.99,1.68 2.75,1.68 4.1,4.53 1.35,2.87 1.35,6.44 v 0 q 0,3.63 -1.54,6.43 -1.55,2.81 -4.38,4.38 -2.83,1.57 -6.74,1.57 v 0 h -8.36 z m 0,-28.6 v 11.39 h 6.39 q 2.8,0 4.2,-1.54 1.4,-1.55 1.4,-4.07 v 0 q 0,-2.75 -1.29,-4.27 -1.29,-1.51 -4.04,-1.51 v 0 z M 156.47,0 h -8.85 v -35.42 h 8.85 v 14.03 h 13.87 v -14.03 h 8.85 V 0 h -8.85 v -14.03 h -13.87 z m 37.19,0 h -8.86 v -35.42 h 17.44 q 4.23,0 6.98,1.68 2.75,1.68 4.1,4.53 1.35,2.87 1.35,6.44 v 0 q 0,3.63 -1.54,6.43 -1.54,2.81 -4.38,4.38 -2.83,1.57 -6.73,1.57 v 0 h -8.36 z m 0,-28.6 v 11.39 h 6.37 q 2.81,0 4.21,-1.54 1.41,-1.55 1.41,-4.07 v 0 q 0,-2.75 -1.3,-4.27 -1.29,-1.51 -4.04,-1.51 v 0 z"
               transform="translate(-0.60000002,36.849998)"
               id="path32" />
          </g>
        </g>
      </g>
    </g>
  </mask>
</svg>
