<svg data-v-0dd9719b="" version="1.0" xmlns="http://www.w3.org/2000/svg" xmlns:xlink="http://www.w3.org/1999/xlink" width="100%" height="100%" viewBox="0 0 340.000000 250.000000" preserveAspectRatio="xMidYMid meet" color-interpolation-filters="sRGB" style="margin: auto;"> <rect data-v-0dd9719b="" x="0" y="0" width="100%" height="100%" fill="#faf7f5" fill-opacity="0" class="background"></rect> <rect data-v-0dd9719b="" x="0" y="0" width="100%" height="100%" fill="url(#watermark)" fill-opacity="1" class="watermarklayer"></rect> <g data-v-0dd9719b="" fill="#1a48cf" class="pmspacesvg" transform="translate(52.965003967285156,91.73500061035156)"><!----> <polyline data-gra="graph-name" stroke="#1a48cf" stroke-width="20" fill-opacity="0" stroke-opacity="0.5" points="10,66.52999877929688 234.0699920654297,66.52999877929688 234.0699920654297,10"></polyline> <!----> <g mask="url(#4978ed83-b7ce-4a0a-b166-4a1870553ef6)"><g><rect data-gra="graph-name-bg" stroke-width="2" class="i-icon-bg" x="0" y="0" width="234.0699920654297" height="66.52999877929688"></rect> <!----> <!----> </g> <g transform="translate(10,10)"><g data-gra="path-name" fill-rule="" class="tp-name" fill="#faf7f5" opacity="1" transform="matrix(1,0,0,1,0,0)"><g transform="scale(1)"><g><path d="M19.86 0L11 0 11-28.6 0.6-28.6 0.6-35.42 30.25-35.42 30.25-28.6 19.86-28.6 19.86 0ZM42.84-30.2L33.22-30.2 33.22-36.85 42.84-36.85 42.84-30.2ZM42.79 0L33.94 0 33.94-19.52 30.09-19.52 30.86-26.07 42.79-26.07 42.79 0ZM57.31 0L48.46 0 48.46-26.07 56.71-26.07 56.98-23.82Q58.58-24.91 61-25.77 63.42-26.62 66.17-26.62L66.17-26.62Q71.23-26.62 73.54-24.2 75.84-21.78 75.84-16.72L75.84-16.72 75.84 0 66.99 0 66.99-16Q66.99-18.21 66.06-19.14 65.12-20.07 62.7-20.07L62.7-20.07Q61.27-20.07 59.79-19.41 58.3-18.75 57.31-17.77L57.31-17.77 57.31 0ZM87.56 9.68L87.56 9.68Q85.58 9.68 84.18 9.49 82.78 9.29 81.4 8.74L81.4 8.74 81.4 2.58Q82.33 2.92 83.13 3.02 83.93 3.14 84.75 3.14L84.75 3.14Q87.01 3.14 88.14 2.34 89.27 1.54 90.42-0.49L90.42-0.49 78.7-26.07 88-26.07 94.88-9.52 101.64-26.07 110.88-26.07 100.92-2.15Q99.44 1.43 97.63 4.1 95.81 6.76 93.39 8.22 90.97 9.68 87.56 9.68ZM123.14 0L114.29 0 114.29-35.42 131.72-35.42Q135.96-35.42 138.71-33.74 141.46-32.06 142.81-29.21 144.16-26.34 144.16-22.77L144.16-22.77Q144.16-19.14 142.62-16.34 141.07-13.53 138.24-11.96 135.41-10.39 131.5-10.39L131.5-10.39 123.14-10.39 123.14 0ZM123.14-28.6L123.14-17.21 129.53-17.21Q132.33-17.21 133.73-18.75 135.13-20.3 135.13-22.82L135.13-22.82Q135.13-25.57 133.84-27.09 132.55-28.6 129.8-28.6L129.8-28.6 123.14-28.6ZM156.47 0L147.62 0 147.62-35.42 156.47-35.42 156.47-21.39 170.34-21.39 170.34-35.42 179.19-35.42 179.19 0 170.34 0 170.34-14.03 156.47-14.03 156.47 0ZM193.66 0L184.8 0 184.8-35.42 202.24-35.42Q206.47-35.42 209.22-33.74 211.97-32.06 213.32-29.21 214.67-26.34 214.67-22.77L214.67-22.77Q214.67-19.14 213.13-16.34 211.59-13.53 208.75-11.96 205.92-10.39 202.02-10.39L202.02-10.39 193.66-10.39 193.66 0ZM193.66-28.6L193.66-17.21 200.03-17.21Q202.84-17.21 204.24-18.75 205.65-20.3 205.65-22.82L205.65-22.82Q205.65-25.57 204.35-27.09 203.06-28.6 200.31-28.6L200.31-28.6 193.66-28.6Z" transform="translate(-0.6000000238418579, 36.849998474121094)"></path></g> <!----> <!----> <!----> <!----> <!----> <!----> <!----></g></g> <!----></g></g></g><defs v-gra="od"></defs><mask id="4978ed83-b7ce-4a0a-b166-4a1870553ef6"><g fill="white"><rect data-gra="graph-name-bg" stroke-width="2" class="i-icon-bg" x="0" y="0" width="234.0699920654297" height="66.52999877929688"></rect>   </g> <g transform="translate(10,10)" fill="black"><g data-gra="path-name" fill-rule="" class="tp-name" opacity="1" transform="matrix(1,0,0,1,0,0)"><g transform="scale(1)"><g><path d="M19.86 0L11 0 11-28.6 0.6-28.6 0.6-35.42 30.25-35.42 30.25-28.6 19.86-28.6 19.86 0ZM42.84-30.2L33.22-30.2 33.22-36.85 42.84-36.85 42.84-30.2ZM42.79 0L33.94 0 33.94-19.52 30.09-19.52 30.86-26.07 42.79-26.07 42.79 0ZM57.31 0L48.46 0 48.46-26.07 56.71-26.07 56.98-23.82Q58.58-24.91 61-25.77 63.42-26.62 66.17-26.62L66.17-26.62Q71.23-26.62 73.54-24.2 75.84-21.78 75.84-16.72L75.84-16.72 75.84 0 66.99 0 66.99-16Q66.99-18.21 66.06-19.14 65.12-20.07 62.7-20.07L62.7-20.07Q61.27-20.07 59.79-19.41 58.3-18.75 57.31-17.77L57.31-17.77 57.31 0ZM87.56 9.68L87.56 9.68Q85.58 9.68 84.18 9.49 82.78 9.29 81.4 8.74L81.4 8.74 81.4 2.58Q82.33 2.92 83.13 3.02 83.93 3.14 84.75 3.14L84.75 3.14Q87.01 3.14 88.14 2.34 89.27 1.54 90.42-0.49L90.42-0.49 78.7-26.07 88-26.07 94.88-9.52 101.64-26.07 110.88-26.07 100.92-2.15Q99.44 1.43 97.63 4.1 95.81 6.76 93.39 8.22 90.97 9.68 87.56 9.68ZM123.14 0L114.29 0 114.29-35.42 131.72-35.42Q135.96-35.42 138.71-33.74 141.46-32.06 142.81-29.21 144.16-26.34 144.16-22.77L144.16-22.77Q144.16-19.14 142.62-16.34 141.07-13.53 138.24-11.96 135.41-10.39 131.5-10.39L131.5-10.39 123.14-10.39 123.14 0ZM123.14-28.6L123.14-17.21 129.53-17.21Q132.33-17.21 133.73-18.75 135.13-20.3 135.13-22.82L135.13-22.82Q135.13-25.57 133.84-27.09 132.55-28.6 129.8-28.6L129.8-28.6 123.14-28.6ZM156.47 0L147.62 0 147.62-35.42 156.47-35.42 156.47-21.39 170.34-21.39 170.34-35.42 179.19-35.42 179.19 0 170.34 0 170.34-14.03 156.47-14.03 156.47 0ZM193.66 0L184.8 0 184.8-35.42 202.24-35.42Q206.47-35.42 209.22-33.74 211.97-32.06 213.32-29.21 214.67-26.34 214.67-22.77L214.67-22.77Q214.67-19.14 213.13-16.34 211.59-13.53 208.75-11.96 205.92-10.39 202.02-10.39L202.02-10.39 193.66-10.39 193.66 0ZM193.66-28.6L193.66-17.21 200.03-17.21Q202.84-17.21 204.24-18.75 205.65-20.3 205.65-22.82L205.65-22.82Q205.65-25.57 204.35-27.09 203.06-28.6 200.31-28.6L200.31-28.6 193.66-28.6Z" transform="translate(-0.6000000238418579, 36.849998474121094)"></path></g>       </g></g> </g></mask></svg>

